# xmcd
#
# Track frame offsets:
#	150
#	50840
#	104587
#	135002
#	165875
#	198953
#	254883
#
# Disc length: 4006 seconds
#
# Revision: 0
# Processed by: cddbd v1.5.2PL0 Copyright (c) Steve Scherf et al.
# Submitted via: EZCDAudioConverter 2.1.7.1
#
DISCID=5c0fa407
DTITLE=Prins Thomas - Principe Del Norte Remixed 1/2
DYEAR=1900
DGENRE=
TTITLE0=H [The Orb Orbient Mix]
TTITLE1=B [Sun Araw Saddle Soap Remix]
TTITLE2=D [Dungen Version]
TTITLE3=J [Original Version]
TTITLE4=C [I:Cube Remix]
TTITLE5=D [Hieroglyphic Being Remix]
TTITLE6=C [Young Marco Remix]
EXTD=
EXTT0=
EXTT1=
EXTT2=
EXTT3=
EXTT4=
EXTT5=
EXTT6=
PLAYORDER=
